<mxfile host="app.diagrams.net" agent="Mozilla/5.0 (Windows NT 10.0; Win64; x64) AppleWebKit/537.36 (KHTML, like Gecko) Chrome/134.0.0.0 Safari/537.36" version="26.2.2">
  <diagram name="Страница — 1" id="aM6PEGAnfI91hq-Z0uyE">
    <mxGraphModel dx="1228" dy="671" grid="1" gridSize="10" guides="1" tooltips="1" connect="1" arrows="1" fold="1" page="1" pageScale="1" pageWidth="827" pageHeight="1169" math="0" shadow="0">
      <root>
        <mxCell id="0" />
        <mxCell id="1" parent="0" />
        <mxCell id="2OyUeLbETTbe8L8Fh3Wm-1" value="" style="rounded=0;whiteSpace=wrap;html=1;" vertex="1" parent="1">
          <mxGeometry x="60" y="100" width="370" height="600" as="geometry" />
        </mxCell>
        <mxCell id="2OyUeLbETTbe8L8Fh3Wm-2" value="Welcome to my web page" style="text;html=1;align=center;verticalAlign=middle;whiteSpace=wrap;rounded=0;" vertex="1" parent="1">
          <mxGeometry x="145" y="110" width="200" height="30" as="geometry" />
        </mxCell>
        <mxCell id="2OyUeLbETTbe8L8Fh3Wm-3" value="&lt;h1 style=&quot;margin-top: 0px;&quot;&gt;Heading&lt;/h1&gt;&lt;p&gt;Lorem ipsum dolor sit amet, consectetur adipisicing elit, sed do eiusmod tempor incididunt ut labore et dolore magna aliqua.&lt;/p&gt;" style="text;html=1;whiteSpace=wrap;overflow=hidden;rounded=0;align=center;" vertex="1" parent="1">
          <mxGeometry x="70" y="150" width="350" height="130" as="geometry" />
        </mxCell>
        <mxCell id="2OyUeLbETTbe8L8Fh3Wm-5" value="" style="rounded=0;whiteSpace=wrap;html=1;" vertex="1" parent="1">
          <mxGeometry x="80" y="270" width="330" height="60" as="geometry" />
        </mxCell>
        <mxCell id="2OyUeLbETTbe8L8Fh3Wm-6" value="text from your own topic" style="text;html=1;align=center;verticalAlign=middle;whiteSpace=wrap;rounded=0;" vertex="1" parent="1">
          <mxGeometry x="140" y="285" width="210" height="30" as="geometry" />
        </mxCell>
        <mxCell id="2OyUeLbETTbe8L8Fh3Wm-7" value="" style="whiteSpace=wrap;html=1;aspect=fixed;" vertex="1" parent="1">
          <mxGeometry x="80" y="360" width="80" height="80" as="geometry" />
        </mxCell>
        <mxCell id="2OyUeLbETTbe8L8Fh3Wm-8" value="" style="whiteSpace=wrap;html=1;aspect=fixed;" vertex="1" parent="1">
          <mxGeometry x="205" y="360" width="80" height="80" as="geometry" />
        </mxCell>
        <mxCell id="2OyUeLbETTbe8L8Fh3Wm-9" value="" style="whiteSpace=wrap;html=1;aspect=fixed;" vertex="1" parent="1">
          <mxGeometry x="320" y="360" width="80" height="80" as="geometry" />
        </mxCell>
        <mxCell id="2OyUeLbETTbe8L8Fh3Wm-10" value="" style="rounded=0;whiteSpace=wrap;html=1;" vertex="1" parent="1">
          <mxGeometry x="70" y="550" width="120" height="20" as="geometry" />
        </mxCell>
        <mxCell id="2OyUeLbETTbe8L8Fh3Wm-11" value="" style="rounded=0;whiteSpace=wrap;html=1;" vertex="1" parent="1">
          <mxGeometry x="70" y="585" width="120" height="20" as="geometry" />
        </mxCell>
        <mxCell id="2OyUeLbETTbe8L8Fh3Wm-12" value="" style="rounded=0;whiteSpace=wrap;html=1;" vertex="1" parent="1">
          <mxGeometry x="70" y="620" width="120" height="20" as="geometry" />
        </mxCell>
        <mxCell id="2OyUeLbETTbe8L8Fh3Wm-13" value="" style="rounded=0;whiteSpace=wrap;html=1;" vertex="1" parent="1">
          <mxGeometry x="70" y="660" width="30" height="20" as="geometry" />
        </mxCell>
        <mxCell id="2OyUeLbETTbe8L8Fh3Wm-14" value="Send me message to join our team" style="text;html=1;align=center;verticalAlign=middle;whiteSpace=wrap;rounded=0;" vertex="1" parent="1">
          <mxGeometry x="167.5" y="490" width="155" height="30" as="geometry" />
        </mxCell>
        <mxCell id="2OyUeLbETTbe8L8Fh3Wm-16" value="img" style="whiteSpace=wrap;html=1;aspect=fixed;" vertex="1" parent="1">
          <mxGeometry x="285" y="547.5" width="95" height="95" as="geometry" />
        </mxCell>
        <mxCell id="2OyUeLbETTbe8L8Fh3Wm-18" value="" style="rounded=0;whiteSpace=wrap;html=1;" vertex="1" parent="1">
          <mxGeometry x="470" y="350" width="370" height="100" as="geometry" />
        </mxCell>
        <mxCell id="2OyUeLbETTbe8L8Fh3Wm-19" value="td" style="whiteSpace=wrap;html=1;aspect=fixed;" vertex="1" parent="1">
          <mxGeometry x="490" y="360" width="80" height="80" as="geometry" />
        </mxCell>
        <mxCell id="2OyUeLbETTbe8L8Fh3Wm-20" value="td" style="whiteSpace=wrap;html=1;aspect=fixed;" vertex="1" parent="1">
          <mxGeometry x="610" y="360" width="80" height="80" as="geometry" />
        </mxCell>
        <mxCell id="2OyUeLbETTbe8L8Fh3Wm-21" value="td" style="whiteSpace=wrap;html=1;aspect=fixed;" vertex="1" parent="1">
          <mxGeometry x="730" y="360" width="80" height="80" as="geometry" />
        </mxCell>
        <mxCell id="2OyUeLbETTbe8L8Fh3Wm-22" value="table" style="text;html=1;align=center;verticalAlign=middle;whiteSpace=wrap;rounded=0;" vertex="1" parent="1">
          <mxGeometry x="470" y="315" width="60" height="30" as="geometry" />
        </mxCell>
        <mxCell id="2OyUeLbETTbe8L8Fh3Wm-23" value="tr" style="text;html=1;align=center;verticalAlign=middle;whiteSpace=wrap;rounded=0;" vertex="1" parent="1">
          <mxGeometry x="450" y="385" width="60" height="30" as="geometry" />
        </mxCell>
        <mxCell id="2OyUeLbETTbe8L8Fh3Wm-24" value="" style="endArrow=none;html=1;rounded=0;entryX=1;entryY=0.5;entryDx=0;entryDy=0;" edge="1" parent="1" source="2OyUeLbETTbe8L8Fh3Wm-23" target="2OyUeLbETTbe8L8Fh3Wm-18">
          <mxGeometry width="50" height="50" relative="1" as="geometry">
            <mxPoint x="430" y="530" as="sourcePoint" />
            <mxPoint x="480" y="480" as="targetPoint" />
          </mxGeometry>
        </mxCell>
        <mxCell id="2OyUeLbETTbe8L8Fh3Wm-26" value="table&lt;br&gt;tr&lt;br&gt;td&lt;br&gt;img" style="text;html=1;align=center;verticalAlign=middle;whiteSpace=wrap;rounded=0;" vertex="1" parent="1">
          <mxGeometry x="640" y="270" width="60" height="30" as="geometry" />
        </mxCell>
        <mxCell id="2OyUeLbETTbe8L8Fh3Wm-27" style="edgeStyle=orthogonalEdgeStyle;rounded=0;orthogonalLoop=1;jettySize=auto;html=1;exitX=0.5;exitY=0;exitDx=0;exitDy=0;entryX=0.873;entryY=0.047;entryDx=0;entryDy=0;entryPerimeter=0;" edge="1" parent="1" source="2OyUeLbETTbe8L8Fh3Wm-26" target="2OyUeLbETTbe8L8Fh3Wm-26">
          <mxGeometry relative="1" as="geometry" />
        </mxCell>
        <mxCell id="2OyUeLbETTbe8L8Fh3Wm-28" value="FISH" style="text;html=1;align=center;verticalAlign=middle;whiteSpace=wrap;rounded=0;" vertex="1" parent="1">
          <mxGeometry x="90" y="450" width="60" height="30" as="geometry" />
        </mxCell>
        <mxCell id="2OyUeLbETTbe8L8Fh3Wm-30" value="FISH" style="text;html=1;align=center;verticalAlign=middle;whiteSpace=wrap;rounded=0;" vertex="1" parent="1">
          <mxGeometry x="215" y="450" width="60" height="30" as="geometry" />
        </mxCell>
        <mxCell id="2OyUeLbETTbe8L8Fh3Wm-33" value="FISH" style="text;html=1;align=center;verticalAlign=middle;whiteSpace=wrap;rounded=0;" vertex="1" parent="1">
          <mxGeometry x="330" y="450" width="60" height="30" as="geometry" />
        </mxCell>
      </root>
    </mxGraphModel>
  </diagram>
</mxfile>
